<svg width="744" height="336" viewBox="0 0 744 336" fill="none" xmlns="http://www.w3.org/2000/svg">
<path d="M161.014 233.757L152.269 220.96L152.269 220.96L161.014 233.757ZM488.247 106.209L479.698 93.2808L479.698 93.2808L488.247 106.209ZM733.941 160.802C741.957 157.798 746.02 148.865 743.016 140.848L694.067 10.2183C691.063 2.20223 682.13 -1.86107 674.114 1.1427C666.098 4.14647 662.034 13.0798 665.038 21.096L708.549 137.212L592.433 180.722C584.417 183.726 580.354 192.659 583.357 200.675C586.361 208.691 595.295 212.755 603.311 209.751L733.941 160.802ZM383.002 199.787L371.031 189.94L370.846 190.166L370.669 190.398L383.002 199.787ZM7.7461 321.709C14.7157 335.554 14.7167 335.554 14.718 335.553C14.7189 335.552 14.7206 335.552 14.7224 335.551C14.7261 335.549 14.7312 335.546 14.7377 335.543C14.7507 335.536 14.7694 335.527 14.7936 335.515C14.8421 335.49 14.9128 335.455 15.0054 335.408C15.1907 335.314 15.4633 335.176 15.8194 334.996C16.5316 334.634 17.5779 334.102 18.9274 333.412C21.6261 332.032 25.5385 330.02 30.4167 327.48C40.1707 322.399 53.8001 315.198 69.3207 306.706C100.255 289.779 139.112 267.497 169.759 246.554L152.269 220.96C122.917 241.017 85.1399 262.712 54.4397 279.511C39.1432 287.881 25.7056 294.981 16.0967 299.985C11.2936 302.487 7.45064 304.463 4.81443 305.811C3.49641 306.485 2.48031 307.002 1.79698 307.348C1.45533 307.522 1.19688 307.652 1.02551 307.739C0.939829 307.782 0.875915 307.815 0.834254 307.836C0.813423 307.846 0.798156 307.854 0.788513 307.859C0.783691 307.861 0.780275 307.863 0.778273 307.864C0.777271 307.864 0.776832 307.865 0.776331 307.865C0.776245 307.865 0.776514 307.865 7.7461 321.709ZM496.797 119.138C507.899 111.797 526.332 108.866 550.828 110.634C574.73 112.359 601.657 118.334 627.314 125.762C652.868 133.159 676.611 141.835 694.003 148.682C702.685 152.1 709.749 155.048 714.625 157.134C717.062 158.177 718.951 159.003 720.218 159.563C720.852 159.843 721.33 160.057 721.644 160.198C721.801 160.268 721.917 160.321 721.991 160.354C722.028 160.371 722.054 160.383 722.07 160.39C722.078 160.393 722.083 160.396 722.085 160.397C722.086 160.397 722.086 160.397 722.087 160.397C722.086 160.397 722.084 160.396 728.502 146.287C734.919 132.178 734.916 132.177 734.913 132.175C734.911 132.174 734.907 132.172 734.902 132.17C734.894 132.167 734.883 132.162 734.869 132.155C734.841 132.143 734.803 132.125 734.754 132.103C734.656 132.059 734.515 131.996 734.333 131.914C733.969 131.75 733.439 131.514 732.752 131.21C731.378 130.603 729.376 129.727 726.818 128.633C721.703 126.445 714.357 123.379 705.359 119.837C687.391 112.763 662.695 103.731 635.935 95.9845C609.278 88.2676 580.017 81.6604 553.059 79.7147C526.695 77.8119 499.596 80.1221 479.698 93.2808L496.797 119.138ZM169.759 246.554C181.095 238.808 195.838 235.732 214.293 235.612C232.954 235.49 252.92 238.317 274.631 240.697C295.568 242.992 318.069 244.848 338.761 241.51C360.036 238.078 380.228 229.021 395.335 209.175L370.669 190.398C361.525 202.409 349.343 208.402 333.823 210.906C317.721 213.504 299.006 212.183 278.009 209.882C257.786 207.665 235.099 204.476 214.091 204.612C192.876 204.75 170.933 208.206 152.269 220.96L169.759 246.554ZM383.002 199.787C394.973 209.633 394.971 209.635 394.97 209.636C394.97 209.636 394.969 209.638 394.969 209.638C394.968 209.639 394.968 209.639 394.968 209.638C394.969 209.637 394.973 209.633 394.979 209.625C394.992 209.61 395.015 209.582 395.048 209.542C395.115 209.461 395.223 209.332 395.371 209.156C395.668 208.803 396.126 208.261 396.739 207.547C397.967 206.118 399.816 203.998 402.238 201.312C407.086 195.937 414.216 188.31 423.248 179.42C441.357 161.596 466.888 138.917 496.797 119.138L479.698 93.2808C447.607 114.502 420.515 138.612 401.502 157.327C391.972 166.706 384.416 174.786 379.217 180.55C376.617 183.434 374.603 185.742 373.223 187.348C372.533 188.151 372.002 188.779 371.634 189.217C371.451 189.435 371.308 189.606 371.207 189.727C371.157 189.788 371.117 189.836 371.088 189.872C371.073 189.89 371.061 189.904 371.051 189.916C371.047 189.921 371.043 189.926 371.039 189.93C371.038 189.932 371.036 189.935 371.035 189.936C371.033 189.938 371.031 189.94 383.002 199.787Z" fill="url(#paint0_linear_136_30)"/>
<defs>
<linearGradient id="paint0_linear_136_30" x1="603.506" y1="193.758" x2="38.5057" y2="299.758" gradientUnits="userSpaceOnUse">
<stop offset="0.005" stop-color="#F7FF00"/>
<stop offset="1" stop-color="white" stop-opacity="0"/>
</linearGradient>
</defs>
</svg>
