<svg width="298" height="141" viewBox="0 0 298 141" fill="none" xmlns="http://www.w3.org/2000/svg">
<path d="M10.797 28.297C10.9312 25.6413 12.4335 24.2835 15.0892 24.4178L38.9224 25.6224C54.3119 26.4003 61.6995 34.215 61.1712 44.6676C60.7564 52.873 55.1511 57.744 47.8164 59.0117L47.782 59.6926C55.6961 60.4681 62.7695 67.0723 62.2481 77.3886C61.687 88.4881 52.9324 96.2379 37.2706 95.4462L11.5647 94.147C8.90905 94.0127 7.55133 92.5104 7.68557 89.8547L10.797 28.297ZM22.8308 82.6328L34.8496 83.2403C43.089 83.6567 46.8378 80.3987 47.1029 75.1553C47.3937 69.4013 43.2081 65.0936 36.1262 64.7357L23.767 64.111L22.8308 82.6328ZM24.2712 54.1351L35.2004 54.6875C41.2268 54.9921 45.8898 51.8826 46.1685 46.3669C46.4232 41.3279 42.8824 37.7696 36.3453 37.4392L25.1437 36.873L24.2712 54.1351ZM85.4574 98.8717C75.4815 98.3675 68.3582 92.7508 68.8814 82.4003C69.4716 70.7221 78.9421 67.719 89.3407 67.2889C98.4762 66.8631 102.074 66.6012 102.244 63.2305L102.254 63.0262C102.471 58.7362 99.7707 56.1079 94.8338 55.8584C91.2589 55.6777 88.6451 56.7403 86.9502 58.532C85.3592 60.2949 84.1482 61.2918 81.8433 60.9705L76.5202 60.2577C73.6382 59.8731 72.2025 57.889 73.5948 55.331C77.2825 48.554 84.9505 44.743 95.4371 45.2731C107.081 45.8616 117.371 51.6384 116.741 64.0998L115.165 95.2873C115.031 97.943 113.528 99.3007 110.873 99.1664L105.289 98.8842C102.633 98.75 101.269 97.3839 101.387 95.0346L101.57 91.4256L101.161 91.4049C98.3615 96.1447 93.1862 99.2624 85.4574 98.8717ZM82.7628 82.6241C82.5614 86.6076 85.6569 88.8463 90.1171 89.0717C96.484 89.3935 101.224 85.4346 101.501 79.953L101.782 74.4032C99.9866 75.4731 94.7736 75.9605 91.5848 76.2431C86.4415 76.7 82.9693 78.5384 82.7628 82.6241ZM161.708 64.8707C159.386 64.8899 158.386 63.747 157.018 61.7664C155.647 59.8538 153.224 58.5025 149.853 58.3321C145.359 58.105 141.715 59.9688 141.59 63.1029C141.429 65.6207 143.149 67.3802 147.964 68.6818L157.333 71.0669C167.374 73.6566 172.082 78.4344 171.734 85.9947C171.179 96.3094 161.126 102.731 147.575 102.046C135.863 101.454 128.186 96.6622 125.599 89.0902C124.644 86.3794 126.403 84.6592 129.236 84.6659L135.484 84.6403C137.84 84.6229 138.871 85.8355 140.169 87.8468C141.691 90.1425 144.426 91.4072 148.138 91.5948C153.211 91.8512 156.693 89.8085 156.918 86.7136C156.982 84.0885 154.99 82.3152 150.474 81.1653L141.508 78.903C131.397 76.3439 126.717 71.0213 127.147 63.1921C127.622 53.1123 136.754 47.3614 150.134 48.0377C161.234 48.5988 168.274 53.1532 170.71 60.3421C171.629 63.0852 169.94 64.7748 167.105 64.8022L161.708 64.8707ZM203.83 104.889C187.726 104.075 178.409 93.2272 179.247 76.6461C180.063 60.5076 190.591 50.0826 205.981 50.8605C219.804 51.5592 230.119 60.8872 229.221 78.66C229.09 81.2476 227.589 82.5713 224.934 82.437L193.406 80.8435L193.404 80.8775C193.01 88.6744 197.364 93.7074 204.616 94.0739C208.123 94.2512 211.106 93.3097 213.121 91.2611C214.742 89.568 216.018 88.6426 218.292 88.8941L223.653 89.5405C226.537 89.8911 228.061 91.4701 227.032 93.6026C223.412 101.066 215.1 105.459 203.83 104.889ZM193.86 71.8549L215.821 72.9649C216.101 66.7325 211.971 62.018 205.672 61.6996C199.237 61.3744 194.468 65.9121 193.86 71.8549ZM256.578 107.384C244.662 106.782 235.843 96.8812 236.728 79.3808C237.637 61.4037 247.791 52.9738 259.265 53.5537C268.015 53.996 271.94 59.4169 273.665 63.771L274.108 63.7933L275.226 41.6625C275.361 39.0068 276.863 37.6491 279.519 37.7833L285.817 38.1017C288.473 38.2359 289.831 39.7382 289.697 42.3939L286.585 103.952C286.451 106.607 284.949 107.965 282.293 107.831L276.164 107.521C273.509 107.387 272.151 105.885 272.285 103.229L272.502 98.9389L271.889 98.9079C269.66 103.164 265.022 107.811 256.578 107.384ZM251.542 80.0613C251.081 89.186 254.642 95.715 261.758 96.0747C268.738 96.4275 273.065 90.502 273.537 81.173C274.008 71.844 270.36 65.6861 263.312 65.3299C256.128 64.9667 252 71.0047 251.542 80.0613Z" fill="url(#paint0_linear_150_134)"/>
<path d="M118.869 123.197C118.566 123.175 118.396 123.023 118.29 122.732C117.89 121.655 117.024 120.959 115.744 120.863C113.901 120.724 112.384 122.068 112.185 124.702C111.986 127.348 113.274 128.903 115.191 129.047C116.934 129.179 118.175 128.156 118.344 126.406L116.188 126.243C115.843 126.217 115.671 126.017 115.697 125.672L115.719 125.38C115.745 125.035 115.945 124.863 116.29 124.889L119.503 125.131C119.849 125.157 120.021 125.357 119.995 125.702L119.941 126.408C119.734 129.155 117.718 130.744 115.079 130.545C112.131 130.323 110.295 128.032 110.554 124.59C110.816 121.116 113.031 119.152 115.846 119.364C117.971 119.524 119.564 120.851 120.002 122.69C120.087 123.059 119.873 123.273 119.496 123.245L118.869 123.197ZM122.146 123.257C122.172 122.912 122.372 122.74 122.717 122.766L123.19 122.802C123.535 122.828 123.707 123.028 123.681 123.373L123.623 124.138L123.708 124.144C124.072 123.29 124.931 122.81 125.887 122.882C125.934 122.886 125.993 122.89 126.051 122.9C126.385 122.93 126.545 123.151 126.52 123.485L126.487 123.921C126.46 124.282 126.298 124.435 126.04 124.389C125.909 124.363 125.761 124.341 125.623 124.331C124.496 124.246 123.615 124.954 123.535 126.022L123.199 130.473C123.173 130.818 122.974 130.99 122.628 130.964L122.102 130.925C121.757 130.899 121.585 130.699 121.611 130.354L122.146 123.257ZM130.444 131.719C128.144 131.545 126.768 129.748 126.958 127.225C127.149 124.686 128.779 123.116 131.079 123.289C133.379 123.462 134.755 125.259 134.564 127.798C134.374 130.321 132.744 131.892 130.444 131.719ZM128.562 127.341C128.444 128.908 129.046 130.273 130.55 130.386C132.042 130.498 132.842 129.239 132.96 127.672C133.078 126.111 132.477 124.73 130.984 124.617C129.481 124.504 128.68 125.779 128.562 127.341ZM135.896 124.362C135.818 123.988 136.005 123.767 136.388 123.796L136.94 123.837C137.254 123.861 137.439 124.025 137.496 124.333L138.555 129.985L138.635 129.991L140.534 124.562C140.637 124.26 140.844 124.132 141.158 124.155L141.864 124.208C142.178 124.232 142.363 124.395 142.42 124.704L143.476 130.329L143.555 130.335L145.437 124.931C145.539 124.635 145.747 124.501 146.06 124.524L146.613 124.566C146.995 124.595 147.148 124.836 147.014 125.2L144.391 132.155C144.278 132.446 144.075 132.58 143.762 132.556L143.072 132.504C142.758 132.481 142.572 132.322 142.511 132.008L141.391 126.454L141.268 126.444L139.329 131.768C139.221 132.07 139.013 132.199 138.7 132.175L138.015 132.123C137.701 132.1 137.521 131.937 137.454 131.632L135.896 124.362ZM152.494 125.757C152.468 126.102 152.268 126.274 151.923 126.248L150.781 126.162L150.443 130.65C150.373 131.569 150.823 131.774 151.338 131.813L151.391 131.817C151.726 131.831 151.925 131.959 151.969 132.293L152.016 132.601C152.065 132.936 151.919 133.181 151.575 133.209C151.424 133.219 151.247 133.227 151.046 133.212C149.79 133.144 148.713 132.342 148.83 130.86L149.193 126.042L148.529 125.992C148.183 125.966 148.011 125.766 148.037 125.421L148.053 125.209C148.079 124.863 148.279 124.692 148.625 124.718L149.289 124.768L149.396 123.344C149.422 122.999 149.622 122.827 149.967 122.853L150.493 122.892C150.838 122.918 151.01 123.118 150.984 123.464L150.877 124.887L152.019 124.973C152.364 124.999 152.536 125.199 152.51 125.544L152.494 125.757ZM155.496 132.906C155.47 133.251 155.27 133.423 154.924 133.397L154.399 133.357C154.053 133.331 153.881 133.132 153.907 132.786L154.647 122.97C154.673 122.625 154.873 122.453 155.218 122.479L155.723 122.517C156.068 122.543 156.24 122.743 156.214 123.088L155.949 126.605L156.05 126.612C156.499 125.759 157.305 125.265 158.575 125.36C160.253 125.487 161.29 126.612 161.137 128.646L160.786 133.304C160.76 133.65 160.56 133.822 160.215 133.796L159.689 133.756C159.344 133.73 159.172 133.53 159.198 133.185L159.534 128.718C159.624 127.523 159.023 126.778 157.929 126.695C156.798 126.61 155.919 127.291 155.821 128.593L155.496 132.906ZM170.822 133.783C170.842 133.512 170.936 133.326 171.137 133.144L174.819 129.864C176.081 128.714 176.707 128.067 176.779 127.105C176.861 126.022 176.073 125.279 174.968 125.195C173.974 125.121 173.237 125.615 172.985 126.483C172.891 126.807 172.724 126.971 172.395 126.946L171.885 126.908C171.534 126.881 171.336 126.669 171.416 126.317C171.792 124.662 173.265 123.689 175.103 123.827C177.153 123.982 178.476 125.428 178.344 127.175C178.253 128.392 177.612 129.31 175.468 131.173L173.136 133.273L173.13 133.353L177.496 133.682C177.841 133.708 178.013 133.908 177.987 134.253L177.961 134.598C177.935 134.943 177.735 135.115 177.39 135.089L171.292 134.63C170.947 134.604 170.775 134.404 170.801 134.059L170.822 133.783ZM183.708 135.747C181.191 135.552 179.874 133.391 180.142 129.832C180.414 126.289 182.056 124.351 184.552 124.539C187.043 124.727 188.381 126.895 188.115 130.432C187.846 133.997 186.22 135.936 183.708 135.747ZM181.773 129.955C181.568 132.674 182.344 134.218 183.815 134.329C185.281 134.439 186.279 133.029 186.484 130.31C186.688 127.601 185.908 126.041 184.447 125.931C182.981 125.82 181.982 127.246 181.773 129.955ZM194.856 128.568C195.019 128.324 195.229 128.228 195.521 128.25L196.079 128.292C196.509 128.324 196.642 128.618 196.386 128.962L193.982 132.237L195.885 135.836C196.086 136.214 195.916 136.485 195.486 136.452L194.923 136.41C194.636 136.388 194.442 136.262 194.312 136.001L192.895 133.191L191.078 135.757C190.91 135.995 190.7 136.092 190.413 136.07L189.845 136.027C189.414 135.995 189.281 135.707 189.537 135.363L191.937 132.082L190.082 128.481C189.886 128.103 190.061 127.839 190.486 127.871L191.054 127.914C191.346 127.936 191.534 128.062 191.659 128.328L193.04 131.258L194.856 128.568Z" fill="#D2D2D2"/>
<path d="M293.548 123.845C293.961 123.478 293.999 122.846 293.633 122.433L287.663 115.698C287.296 115.285 286.664 115.247 286.251 115.613C285.838 115.979 285.8 116.611 286.166 117.025L291.473 123.011L285.486 128.318C285.073 128.684 285.035 129.316 285.401 129.73C285.768 130.143 286.4 130.181 286.813 129.815L293.548 123.845ZM59.1704 110.03L292.824 124.094L292.945 122.098L59.2906 108.034L59.1704 110.03Z" fill="white"/>
<path d="M4.49758 106.484C4.13146 106.071 4.16988 105.439 4.58337 105.072L11.3217 99.1063C11.7352 98.7402 12.3672 98.7786 12.7333 99.1921C13.0994 99.6056 13.061 100.238 12.6475 100.604L6.65789 105.907L11.9611 111.897C12.3272 112.31 12.2888 112.942 11.8753 113.308C11.4618 113.674 10.8298 113.636 10.4637 113.222L4.49758 106.484ZM153.965 115.862L5.18561 106.819L5.30695 104.823L154.086 113.866L153.965 115.862Z" fill="white"/>
<defs>
<linearGradient id="paint0_linear_150_134" x1="127.316" y1="113.515" x2="143.839" y2="28.3261" gradientUnits="userSpaceOnUse">
<stop offset="0.0954187" stop-color="#00DAF7"/>
<stop offset="1" stop-color="#DD00FF"/>
</linearGradient>
</defs>
</svg>
