<svg width="396" height="121" viewBox="0 0 396 121" fill="none" xmlns="http://www.w3.org/2000/svg">
<path d="M56.9698 51.7874C54.5495 51.8173 53.2735 50.6397 52.3586 48.3327C50.1084 42.8032 44.8866 39.5947 38.1371 39.678C27.3311 39.8113 20.3429 48.1823 20.5221 62.7039C20.7064 77.6346 27.9962 85.4202 38.5977 85.2894C45.1767 85.2082 50.3211 82.1445 52.5735 76.7981C53.5339 74.502 54.7468 73.3278 57.167 73.298L63.951 73.2483C66.8149 73.2471 68.404 74.9321 67.6536 77.6689C64.4833 88.7543 54.3372 98.153 38.5202 98.3481C19.8398 98.5787 5.83839 85.6596 5.55737 62.8886C5.27552 40.0494 19.1933 26.8539 37.6351 26.6263C52.2249 26.4463 63.7038 33.8734 67.3457 47.1931C68.1301 49.9791 66.5486 51.6692 63.7192 51.7041L56.9698 51.7874ZM102.795 97.6231C86.9094 97.8192 76.8896 87.067 76.6906 70.9432C76.4904 54.7172 86.2422 43.7551 102.127 43.5591C118.012 43.363 128.032 54.0811 128.232 70.3072C128.431 86.4309 118.68 97.4271 102.795 97.6231ZM91.4496 70.6588C91.5623 79.7945 95.3949 86.4636 102.724 86.3732C109.917 86.2844 113.583 79.5227 113.471 70.3871C113.358 61.2514 109.525 54.5482 102.332 54.6369C95.0033 54.7274 91.3368 61.5231 91.4496 70.6588ZM170.976 47.4825C170.944 44.8236 172.358 43.3742 175.017 43.3414L181.357 43.2632C184.016 43.2304 185.465 44.6444 185.498 47.3033L186.043 91.4818C186.076 94.1406 184.662 95.59 182.003 95.6228L176.242 95.6939C173.583 95.7267 172.134 94.3127 172.101 91.6538L172.034 86.2338L171.489 86.2405C169.212 92.4054 163.604 96.5318 155.729 96.6289C145.196 96.7589 137.946 89.3819 137.76 77.1447L137.399 47.8969C137.367 45.238 138.781 43.7886 141.44 43.7558L147.78 43.6776C150.439 43.6447 151.888 45.0588 151.921 47.7177L152.25 74.3747C152.36 80.5443 155.953 84.3525 161.441 84.2848C166.657 84.2204 171.418 80.4796 171.297 73.4578L170.976 47.4825ZM196.898 29.7067C196.865 27.0478 198.28 25.5985 200.938 25.5657L207.279 25.4874C209.938 25.4546 211.387 26.8686 211.42 29.5275L211.83 62.7636L212.614 62.754L227.192 45.0159C228.535 43.3628 230.027 42.6626 232.174 42.6361L239.196 42.5494C242.742 42.5057 243.827 44.8106 241.576 47.5318L226.659 65.3763L243.974 89.8804C245.917 92.618 244.785 94.8481 241.411 94.8897L233.604 94.986C231.423 95.013 229.879 94.2479 228.629 92.4222L215.891 74.1008L212.026 78.6147L212.18 91.1592C212.213 93.8181 210.799 95.2675 208.14 95.3003L201.8 95.3785C199.141 95.4113 197.692 93.9973 197.659 91.3384L196.898 29.7067ZM260.146 35.5404C255.85 35.5934 252.264 32.3306 252.214 28.274C252.165 24.2516 255.669 20.9013 259.964 20.8483C264.293 20.7949 267.879 24.0577 267.929 28.0801C267.979 32.1366 264.475 35.4869 260.146 35.5404ZM253.53 90.6489L252.984 46.4705C252.952 43.8116 254.366 42.3622 257.025 42.3294L263.365 42.2511C266.024 42.2183 267.473 43.6324 267.506 46.2913L268.051 90.4697C268.084 93.1286 266.67 94.578 264.011 94.6108L257.671 94.689C255.012 94.7219 253.562 93.3078 253.53 90.6489ZM294.205 90.147C294.238 92.8058 292.824 94.2552 290.165 94.288L283.825 94.3663C281.166 94.3991 279.717 92.9851 279.684 90.3262L279.139 46.1477C279.106 43.4888 280.52 42.0394 283.179 42.0066L288.837 41.9368C291.496 41.904 292.946 43.318 292.979 45.9769L293.042 51.1242L293.656 51.1167C295.932 44.9858 301.51 41.0985 309.282 41.0026C320.19 40.868 327.441 48.2791 327.592 60.4827L327.953 89.7305C327.986 92.3894 326.572 93.8388 323.913 93.8716L317.572 93.9498C314.913 93.9826 313.464 92.5686 313.431 89.9097L313.102 63.2526C313.057 56.8436 309.499 53.069 303.67 53.141C297.807 53.2133 293.833 57.2172 293.882 63.9671L294.205 90.147ZM363.293 114.114C351.738 114.257 344.151 110.089 340.804 104.062C339.409 101.522 340.919 99.5599 343.744 99.15L349.257 98.3319C351.537 97.9969 352.776 98.9362 354.399 100.621C356.195 102.474 359.108 103.733 363.506 103.679C369.812 103.601 374.379 100.749 374.291 93.5567L374.172 83.9779L373.559 83.9855C371.703 88.3382 367.085 92.5887 358.733 92.6918C346.939 92.8373 337.396 84.8409 337.181 67.4217C336.961 49.5935 346.566 40.5425 358.054 40.4007C366.815 40.2926 371.14 45.4556 373.136 49.6926L373.681 49.6859L373.623 44.9817C373.59 42.3228 375.004 40.8734 377.663 40.8406L383.901 40.7636C386.56 40.7308 388.01 42.1449 388.042 44.8037L388.644 93.5841C388.81 106.981 378.258 113.93 363.293 114.114ZM352.009 67.1706C352.12 76.204 356.076 81.8147 363.201 81.7267C370.189 81.6405 374.144 76.1367 374.03 66.8988C373.917 57.729 369.889 51.8124 362.833 51.8995C355.64 51.9882 351.899 58.2735 352.009 67.1706Z" fill="url(#paint0_linear_161_224)"/>
<path d="M281 40.0737C281 23.5052 294.431 10.0737 311 10.0737H356C372.569 10.0737 386 23.5052 386 40.0737V40.0737H281V40.0737Z" fill="#BFBFBF"/>
<defs>
<linearGradient id="paint0_linear_161_224" x1="172.314" y1="109.243" x2="180.368" y2="22.4508" gradientUnits="userSpaceOnUse">
<stop offset="0.0954187" stop-color="#BFBFBF"/>
</linearGradient>
</defs>
</svg>
