<svg width="241" height="96" viewBox="0 0 241 96" fill="none" xmlns="http://www.w3.org/2000/svg">
<path d="M50.7926 27.9205C50.7926 26.2585 51.6875 25.3636 53.3494 25.3636H57.3125C58.9744 25.3636 59.8693 26.2585 59.8693 27.9205V41.7699H60.1463C61.3608 39.1065 63.9815 35.8466 69.4574 35.8466C76.6378 35.8466 82.7102 41.429 82.7102 52.679C82.7102 63.6307 76.8935 69.5327 69.4361 69.5327C64.152 69.5327 61.4034 66.4858 60.1463 63.7585H59.7415V66.4432C59.7415 68.1051 58.8466 69 57.1847 69H53.3494C51.6875 69 50.7926 68.1051 50.7926 66.4432V27.9205ZM59.6776 52.6364C59.6776 58.4744 62.1918 62.3097 66.5597 62.3097C71.0128 62.3097 73.4418 58.3466 73.4418 52.6364C73.4418 46.9688 71.0554 43.0696 66.5597 43.0696C62.1491 43.0696 59.6776 46.7983 59.6776 52.6364ZM109.754 38.8295C109.754 37.1676 110.649 36.2727 112.311 36.2727H116.274C117.936 36.2727 118.831 37.1676 118.831 38.8295V66.4432C118.831 68.1051 117.936 69 116.274 69H112.673C111.011 69 110.116 68.1051 110.116 66.4432V63.0554H109.775C108.305 66.8906 104.768 69.4261 99.8462 69.4261C93.2624 69.4261 88.788 64.7599 88.7667 57.1108V38.8295C88.7667 37.1676 89.6616 36.2727 91.3235 36.2727H95.2866C96.9485 36.2727 97.8434 37.1676 97.8434 38.8295V55.4915C97.8647 59.348 100.081 61.7557 103.511 61.7557C106.771 61.7557 109.775 59.4545 109.754 55.0653V38.8295ZM130.651 32.054C127.966 32.054 125.75 29.9872 125.75 27.4517C125.75 24.9375 127.966 22.8707 130.651 22.8707C133.357 22.8707 135.572 24.9375 135.572 27.4517C135.572 29.9872 133.357 32.054 130.651 32.054ZM126.091 66.4432V38.8295C126.091 37.1676 126.986 36.2727 128.648 36.2727H132.611C134.273 36.2727 135.168 37.1676 135.168 38.8295V66.4432C135.168 68.1051 134.273 69 132.611 69H128.648C126.986 69 126.091 68.1051 126.091 66.4432ZM151.515 66.4432C151.515 68.1051 150.62 69 148.958 69H144.995C143.333 69 142.439 68.1051 142.439 66.4432V27.9205C142.439 26.2585 143.333 25.3636 144.995 25.3636H148.958C150.62 25.3636 151.515 26.2585 151.515 27.9205V66.4432ZM170.846 69.5327C163.388 69.5327 157.572 63.6307 157.572 52.679C157.572 41.429 163.644 35.8466 170.825 35.8466C176.3 35.8466 178.921 39.1065 180.136 41.7699H180.413V27.9205C180.413 26.2585 181.308 25.3636 182.969 25.3636H186.911C188.573 25.3636 189.468 26.2585 189.468 27.9205V66.4432C189.468 68.1051 188.573 69 186.911 69H183.076C181.414 69 180.519 68.1051 180.519 66.4432V63.7585H180.136C178.879 66.4858 176.13 69.5327 170.846 69.5327ZM166.84 52.6364C166.84 58.3466 169.269 62.3097 173.722 62.3097C178.09 62.3097 180.604 58.4744 180.604 52.6364C180.604 46.7983 178.133 43.0696 173.722 43.0696C169.227 43.0696 166.84 46.9688 166.84 52.6364Z" fill="#6C6C6C"/>
<path d="M47 76.4574H193.282V79.4403H47V76.4574Z" fill="#6C6C6C"/>
<path d="M202 3H221C230.389 3 238 10.6112 238 20V35" stroke="#393939" stroke-width="5"/>
<path d="M38 3H20C10.6112 3 3 10.6112 3 20V35" stroke="#393939" stroke-width="5"/>
<path d="M38 93H20C10.6112 93 3 85.3888 3 76V61" stroke="#393939" stroke-width="5"/>
<path d="M202 93H221C230.389 93 238 85.3888 238 76V61" stroke="#393939" stroke-width="5"/>
</svg>
