<svg width="460" height="125" viewBox="0 0 460 125" fill="none" xmlns="http://www.w3.org/2000/svg">
<path d="M106.805 27.4187C109.464 27.3859 110.914 28.8 110.946 31.4588L111.497 76.0464C111.63 89.5798 102.088 98.2551 87.9416 98.4296C76.6584 98.5689 67.4575 93.3979 65.5145 82.3756C65.0377 79.654 66.6891 78.0994 69.4162 78.0658L76.0975 77.9833C78.5859 77.9526 79.6246 79.2354 80.5403 81.6106C81.8079 84.8679 84.6595 86.6397 88.5456 86.5917C93.9997 86.5244 96.9557 82.9422 96.9069 76.2264L96.3567 31.6389C96.3239 28.98 97.7379 27.5306 100.397 27.4978L106.805 27.4187ZM147.358 97.7646C131.473 97.9606 121.453 87.2084 121.254 71.0847C121.054 54.8586 130.806 43.8966 146.691 43.7005C162.576 43.5045 172.596 54.2226 172.796 70.4486C172.995 86.5724 163.244 97.5686 147.358 97.7646ZM136.013 70.8003C136.126 79.9359 139.959 86.605 147.288 86.5146C154.48 86.4258 158.147 79.6642 158.034 70.5285C157.922 61.3928 154.089 54.6896 146.896 54.7784C139.567 54.8688 135.901 61.6646 136.013 70.8003ZM215.784 59.0764C213.468 59.2413 212.397 58.1635 210.908 56.2727C209.42 54.45 206.916 53.2535 203.541 53.2952C199.042 53.3507 195.522 55.4398 195.594 58.5755C195.591 61.0984 197.419 62.7465 202.306 63.743L211.806 65.535C221.99 67.4891 226.989 71.9618 227.117 79.529C227.21 89.8582 217.58 96.898 204.013 97.0654C192.287 97.2101 184.324 92.9103 181.267 85.5157C180.143 82.8703 181.791 81.043 184.619 80.8717L190.853 80.4538C193.203 80.2884 194.308 81.434 195.73 83.3598C197.393 85.5553 200.202 86.6457 203.918 86.5999C208.997 86.5372 212.345 84.2798 212.375 81.1769C212.274 78.553 210.174 76.9083 205.595 76.0443L196.505 74.3495C186.253 72.4304 181.248 67.4123 181.185 59.5715C181.026 49.4818 189.779 43.1688 203.176 43.0035C214.288 42.8663 221.601 46.9696 224.483 53.9914C225.573 56.6713 223.993 58.4637 221.166 58.669L215.784 59.0764ZM260.131 96.3729C244.007 96.5719 234.224 85.6122 234.027 69.693C233.829 53.6374 243.511 42.5057 259.396 42.3097C271.361 42.162 279.924 48.125 282.428 57.7084C283.11 60.4275 281.494 62.0839 278.698 62.1184L272.972 62.1891C270.551 62.219 269.412 61.0398 268.327 58.803C266.787 55.549 263.83 53.574 259.774 53.624C253.024 53.7073 248.663 59.4207 248.785 69.3063C248.908 79.3283 253.376 84.9667 260.16 84.883C263.978 84.8359 267.022 82.9232 268.582 79.4946C269.611 77.2317 270.722 76.0247 273.142 75.9949L278.835 75.9246C281.63 75.8901 283.284 77.3016 282.802 79.7282C280.743 89.6408 272.539 96.2198 260.131 96.3729ZM292.205 46.6779C292.172 44.019 293.586 42.5696 296.245 42.5368L302.142 42.464C304.801 42.4312 306.251 43.8452 306.283 46.5041L306.346 51.5492L306.891 51.5425C308.72 45.0421 313.484 41.574 319.348 41.5016C319.586 41.4987 319.859 41.4953 320.132 41.526C322.656 41.5972 323.938 43.2519 323.969 45.7745L324.027 50.4446C324.061 53.2398 322.986 54.5145 321.04 54.2999C319.981 54.1766 318.89 54.1219 317.935 54.1336C311.527 54.2127 306.877 58.7023 306.957 65.145L307.272 90.6771C307.305 93.336 305.89 94.7854 303.232 94.8182L296.891 94.8964C294.232 94.9292 292.783 93.5152 292.75 90.8563L292.205 46.6779ZM338.644 35.263C334.349 35.316 330.763 32.0532 330.713 27.9967C330.663 23.9743 334.168 20.624 338.463 20.571C342.792 20.5175 346.378 23.7804 346.428 27.8028C346.478 31.8593 342.974 35.2096 338.644 35.263ZM332.028 90.3716L331.483 46.1931C331.45 43.5342 332.864 42.0849 335.523 42.0521L341.864 41.9738C344.523 41.941 345.972 43.355 346.005 46.0139L346.55 90.1924C346.583 92.8513 345.169 94.3006 342.51 94.3335L336.169 94.4117C333.511 94.4445 332.061 93.0305 332.028 90.3716ZM357.637 45.8704C357.605 43.2115 359.019 41.7621 361.678 41.7293L367.813 41.6536C370.472 41.6208 371.922 43.0348 371.955 45.6937L372.013 50.3979L372.66 50.3899C374.551 46.1049 378.679 40.8376 387.44 40.7295C398.928 40.5877 408.753 49.399 408.975 67.3976C409.191 84.919 400.002 94.4763 388.071 94.6235C379.617 94.7279 375.159 89.9075 373.094 85.569L372.651 85.5745L372.947 109.504C372.979 112.163 371.565 113.613 368.906 113.646L362.566 113.724C359.907 113.757 358.458 112.343 358.425 109.684L357.637 45.8704ZM372.125 67.7842C372.24 77.1244 376.338 83.2106 383.326 83.1244C390.451 83.0365 394.259 76.6481 394.146 67.5124C394.034 58.4449 390.139 52.2539 382.946 52.3426C375.89 52.4297 372.01 58.444 372.125 67.7842ZM446.267 47.5041C446.299 50.163 444.885 51.6124 442.226 51.6452L436.466 51.7163L436.779 77.078C436.828 81.1004 438.853 82.1664 441.75 82.1306L442.091 82.1264C444.272 81.9972 445.61 82.6967 446.08 84.8388L446.909 88.4766C447.486 91.0605 446.486 92.9139 443.901 93.3891C442.778 93.6075 441.417 93.7606 439.918 93.8473C429.39 94.4205 422.339 89.4276 422.28 79.1661L421.944 51.8955L418.876 51.9333C416.217 51.9662 414.768 50.5521 414.735 47.8932L414.701 45.1662C414.668 42.5073 416.082 41.0579 418.741 41.0251L421.809 40.9872L421.705 32.5333C421.672 29.8744 423.086 28.425 425.745 28.3922L432.086 28.314C434.744 28.2812 436.194 29.6952 436.227 32.3541L436.331 40.808L442.092 40.7369C444.751 40.7041 446.2 42.1181 446.233 44.777L446.267 47.5041Z" fill="url(#paint0_linear_161_222)"/>
<path d="M82 121C82 121 83.7199 82.6705 109.568 83.2674C127.548 83.6826 125.654 118.583 143.42 115.847C159.057 113.439 154.981 85.2965 170.674 83.2674C188.098 81.0143 183.422 114.261 200.923 115.847C220.115 117.586 218.449 79.4606 237.325 83.2674C253.055 86.4396 250.035 114.513 266.037 115.847C283.153 117.275 272.702 83.2678 294.748 83.2674C316.795 83.267 304.49 115.847 322.435 115.847C340.379 115.847 332.689 83.2674 349.095 83.2674C365.502 83.2674 359.205 115.847 376.781 115.847C398.315 115.847 392.675 83.2673 408.569 83.2674C424.463 83.2675 410.107 115.847 432.666 115.847C455.225 115.847 450.611 83.2674 450.611 83.2674" stroke="url(#paint1_linear_161_222)" stroke-width="17"/>
<path fill-rule="evenodd" clip-rule="evenodd" d="M47.3923 26.6075C54.7626 24.7214 63.6708 27.324 69.0885 33.0698H75.2143C76.1748 33.0698 77.0674 33.5655 77.5766 34.3815C78.0853 35.1975 78.1393 36.2188 77.7187 37.084L71.7243 49.4177C73.4253 63.7891 67.7641 77.5195 56.3972 85.6295C44.7745 93.9219 27.6737 96.0163 7.38125 87.7567C6.32518 87.362 5.40897 86.6579 4.75584 85.7327C4.08965 84.7886 3.73048 83.6607 3.73048 82.5022C3.73048 81.3442 4.08965 80.2163 4.75584 79.2722C5.42177 78.328 6.36117 77.615 7.44354 77.2247C7.51591 77.1985 7.58929 77.1756 7.6635 77.1555C10.8055 76.3091 13.8083 75.0418 16.5912 73.3941C11.0989 70.1241 6.60966 65.3633 3.68398 59.6229C0.0377647 52.4687 -0.940162 44.2629 0.921561 36.462C1.03984 35.4851 1.41357 34.5563 2.00527 33.7689C2.65095 32.9096 3.52841 32.2555 4.53147 31.8804C5.53435 31.5054 6.62331 31.424 7.6703 31.645C8.71645 31.866 9.68015 32.3804 10.4463 33.1309C18.4707 40.9653 25.4961 44.2116 30.3672 45.5399C32.2877 46.0637 33.891 46.2941 35.1097 46.3847C34.7299 41.4053 35.5806 37.2584 37.4669 33.9825C39.7591 30.0016 43.3965 27.63 47.3923 26.6075Z" fill="url(#paint2_linear_161_222)"/>
<defs>
<linearGradient id="paint0_linear_161_222" x1="231.71" y1="109.202" x2="239.902" y2="22.4371" gradientUnits="userSpaceOnUse">
<stop offset="0.0954187" stop-color="#BFBFBF"/>
</linearGradient>
<linearGradient id="paint1_linear_161_222" x1="360.983" y1="95.1545" x2="346.974" y2="141.673" gradientUnits="userSpaceOnUse">
<stop offset="0.306609" stop-color="#163F02" stop-opacity="0.11"/>
<stop offset="1" stop-color="#58F50A"/>
</linearGradient>
<linearGradient id="paint2_linear_161_222" x1="12.7475" y1="38.8862" x2="70.8978" y2="76.3881" gradientUnits="userSpaceOnUse">
<stop stop-color="#FFD600"/>
<stop offset="1" stop-color="#00D078"/>
</linearGradient>
</defs>
</svg>
