<svg width="530" height="122" viewBox="0 0 530 122" fill="none" xmlns="http://www.w3.org/2000/svg">
<path fill-rule="evenodd" clip-rule="evenodd" d="M448.658 87.7823L448.66 87.7936C448.332 89.349 448.446 90.9651 448.989 92.4589C449.532 93.9528 450.483 95.2648 451.733 96.2465C452.983 97.2282 454.483 97.8403 456.063 98.0137C457.643 98.1871 459.24 97.9148 460.674 97.2275L459.432 94.6543L460.679 97.2268L460.69 97.2198L460.723 97.2044L460.853 97.1426L461.353 96.8982L463.257 95.9785L470.083 92.6708C486.3 84.8272 502.517 76.986 518.736 69.1474L520.765 68.1666L521.331 67.897L521.495 67.8198C522.567 67.5744 523.545 67.0234 524.31 66.2335C525.075 65.4436 525.595 64.4487 525.806 63.3694C526.018 62.2901 525.911 61.1727 525.501 60.1525C525.09 59.1323 524.392 58.2532 523.491 57.6216C523.01 57.2295 522.467 56.9195 521.884 56.704C521.354 56.5087 520.77 56.389 520.226 56.2703L520.203 56.2673L503.24 52.5805L492.152 50.1728L488.528 49.3826L488.498 49.3747L488.482 49.3363L486.824 45.9843L481.753 35.7441C479.181 30.5222 476.584 25.3126 473.962 20.1153L473.828 19.8666C473.509 19.2718 472.949 18.2052 471.945 17.4166C471.358 16.9556 470.686 16.6148 469.968 16.4135C469.249 16.2123 468.498 16.1546 467.757 16.2437C467.016 16.3328 466.3 16.567 465.65 16.9329C465 17.2988 464.428 17.7892 463.967 18.3762L463.917 18.4397C463.612 18.7945 463.342 19.1778 463.111 19.5843C462.752 20.2833 462.514 21.0378 462.407 21.816L462.408 21.8274L462.364 22.0342L462.239 22.6709L461.779 24.925L460.191 32.5874C457.065 47.6124 453.927 62.6351 450.779 77.6556L449.246 85.012L448.803 87.0684L448.702 87.6159L448.661 87.7532L448.658 87.7823Z" fill="url(#paint0_radial_161_225)"/>
<path d="M6.40426 32.6128C6.37145 29.9539 7.78549 28.5045 10.4444 28.4717L17.0234 28.3905C19.6823 28.3577 21.1317 29.7717 21.1645 32.4306L21.8254 85.9834L47.6643 85.6645C50.3232 85.6317 51.7726 87.0457 51.8054 89.7046L51.8546 93.6929C51.8874 96.3518 50.4734 97.8012 47.8145 97.834L11.3059 98.2846C8.64703 98.3174 7.19766 96.9033 7.16484 94.2444L6.40426 32.6128ZM85.0771 98.397C69.192 98.593 59.1722 87.8408 58.9732 71.717C58.7729 55.491 68.5248 44.5289 84.4099 44.3329C100.295 44.1369 110.314 54.8549 110.515 71.081C110.714 87.2048 100.962 98.2009 85.0771 98.397ZM73.7322 71.4326C73.8449 80.5683 77.6775 87.2374 85.0065 87.147C92.1991 87.0582 95.866 80.2965 95.7532 71.1609C95.6405 62.0252 91.8075 55.322 84.6148 55.4108C77.2858 55.5012 73.6194 62.297 73.7322 71.4326ZM143.948 97.6705C127.824 97.8694 118.04 86.9098 117.844 70.9905C117.646 54.9349 127.327 43.8033 143.212 43.6072C155.177 43.4596 163.74 49.4225 166.245 59.006C166.926 61.7251 165.31 63.3815 162.515 63.416L156.788 63.4867C154.368 63.5165 153.228 62.3373 152.144 60.1005C150.603 56.8466 147.647 54.8715 143.591 54.9216C136.841 55.0049 132.479 60.7182 132.601 70.6039C132.725 80.6258 137.193 86.2643 143.976 86.1806C147.794 86.1335 150.839 84.2208 152.399 80.7922C153.428 78.5293 154.538 77.3223 156.959 77.2924L162.651 77.2222C165.447 77.1877 167.1 78.5992 166.619 81.0258C164.559 90.9383 156.356 97.5173 143.948 97.6705ZM191.56 97.0488C181.572 97.172 174.11 92.0137 173.982 81.6509C173.838 69.9586 183.101 66.3667 193.452 65.2844C202.543 64.2858 206.117 63.7984 206.075 60.4237L206.073 60.2192C206.02 55.924 203.16 53.4705 198.217 53.5315C194.638 53.5757 192.096 54.8003 190.517 56.695C189.039 58.5542 187.893 59.6253 185.573 59.4493L180.216 59.0722C177.315 58.8694 175.758 56.9794 176.986 54.339C180.241 47.3438 187.655 43.0588 198.154 42.9292C209.812 42.7853 220.444 47.9045 220.598 60.3808L220.984 91.6057C221.017 94.2646 219.603 95.714 216.944 95.7468L211.353 95.8158C208.694 95.8486 207.247 94.5709 207.218 92.2188L207.173 88.6055L206.764 88.6105C204.267 93.5167 199.298 96.9533 191.56 97.0488ZM187.85 81.0024C187.9 84.9908 191.13 87.0306 195.595 86.9755C201.97 86.8968 206.452 82.648 206.384 77.1598L206.315 71.6034C204.591 72.7839 199.419 73.5977 196.254 74.08C191.15 74.859 187.8 76.9118 187.85 81.0024ZM259.589 49.6716C259.621 52.3305 258.207 53.7799 255.548 53.8127L249.788 53.8838L250.101 79.2455C250.15 83.2679 252.175 84.3339 255.072 84.2982L255.413 84.294C257.594 84.1648 258.932 84.8642 259.402 87.0063L260.231 90.6441C260.808 93.2281 259.808 95.0815 257.223 95.5566C256.1 95.775 254.739 95.9282 253.24 96.0149C242.712 96.588 235.661 91.5951 235.602 81.3337L235.266 54.063L232.198 54.1009C229.539 54.1337 228.09 52.7196 228.057 50.0607L228.023 47.3337C227.99 44.6748 229.404 43.2254 232.063 43.1926L235.131 43.1547L235.027 34.7008C234.994 32.042 236.408 30.5926 239.067 30.5598L245.408 30.4815C248.066 30.4487 249.516 31.8627 249.549 34.5216L249.653 42.9755L255.414 42.9044C258.073 42.8716 259.522 44.2857 259.555 46.9446L259.589 49.6716ZM276.176 35.8977C271.88 35.9507 268.294 32.6879 268.244 28.6314C268.195 24.609 271.699 21.2587 275.994 21.2056C280.323 21.1522 283.909 24.415 283.959 28.4375C284.009 32.494 280.505 35.8443 276.176 35.8977ZM269.56 91.0063L269.014 46.8278C268.982 44.1689 270.396 42.7196 273.055 42.6867L279.395 42.6085C282.054 42.5757 283.503 43.9897 283.536 46.6486L284.081 90.8271C284.114 93.486 282.7 94.9353 280.041 94.9681L273.701 95.0464C271.042 95.0792 269.592 93.6652 269.56 91.0063ZM319.434 95.5048C303.549 95.7008 293.529 84.9487 293.33 68.8249C293.13 52.5989 302.882 41.6368 318.767 41.4407C334.652 41.2447 344.672 51.9628 344.872 68.1888C345.071 84.3126 335.319 95.3088 319.434 95.5048ZM308.089 68.5405C308.202 77.6761 312.035 84.3453 319.364 84.2548C326.556 84.1661 330.223 77.4044 330.11 68.2687C329.998 59.1331 326.165 52.4298 318.972 52.5186C311.643 52.6091 307.977 59.4048 308.089 68.5405ZM369.106 89.7778C369.139 92.4367 367.725 93.8861 365.066 93.9189L358.726 93.9971C356.067 94.0299 354.617 92.6159 354.584 89.957L354.039 45.7785C354.006 43.1197 355.42 41.6703 358.079 41.6375L363.738 41.5676C366.397 41.5348 367.846 42.9489 367.879 45.6078L367.943 50.7551L368.556 50.7475C370.833 44.6167 376.41 40.7294 384.183 40.6335C395.091 40.4989 402.342 47.9099 402.493 60.1136L402.853 89.3613C402.886 92.0202 401.472 93.4696 398.813 93.5024L392.473 93.5807C389.814 93.6135 388.365 92.1994 388.332 89.5405L388.003 62.8835C387.958 56.4745 384.4 52.6999 378.571 52.7718C372.707 52.8442 368.734 56.8481 368.783 63.598L369.106 89.7778ZM430.165 68.1591C430.13 70.8188 428.715 72.2 426.09 72.2324L421.658 72.2871C419.034 72.3195 417.585 70.9736 417.484 68.3155L415.823 27.6284C415.722 24.9704 417.169 23.4524 419.828 23.4196L426.68 23.335C429.339 23.3022 430.823 24.784 430.788 27.4437L430.165 68.1591ZM415.861 85.996C415.772 81.5309 419.443 77.8376 423.942 77.782C428.306 77.7282 432.134 81.3289 432.224 85.7941C432.245 90.3283 428.507 94.0224 424.143 94.0762C419.644 94.1318 415.883 90.5302 415.861 85.996Z" fill="url(#paint1_linear_161_225)"/>
<defs>
<radialGradient id="paint0_radial_161_225" cx="0" cy="0" r="1" gradientUnits="userSpaceOnUse" gradientTransform="translate(462.602 87.8573) rotate(-47.8145) scale(66.8453 72.7143)">
<stop stop-color="#18EEF7"/>
<stop offset="1" stop-color="#057DC7"/>
</radialGradient>
<linearGradient id="paint1_linear_161_225" x1="191.844" y1="109.558" x2="198.978" y2="22.5911" gradientUnits="userSpaceOnUse">
<stop offset="0.0954187" stop-color="#BFBFBF"/>
</linearGradient>
</defs>
</svg>
