<svg width="45" height="41" viewBox="0 0 45 41" fill="none" xmlns="http://www.w3.org/2000/svg">
<path fill-rule="evenodd" clip-rule="evenodd" d="M7.37829 39.024C5.77458 38.8527 4.2755 38.1456 3.1233 37.017C1.9711 35.8885 1.2331 34.4044 1.02857 32.8046C0.514286 28.6731 0 24.4046 0 20.0297C0 16.8103 0.281143 13.6457 0.630857 10.5566C0.648092 10.4053 0.70546 10.2614 0.797014 10.1398C0.888569 10.0182 1.01098 9.92324 1.15157 9.86483C1.29215 9.80643 1.4458 9.78668 1.59658 9.80764C1.74737 9.82859 1.88981 9.88948 2.00914 9.984L16.6389 21.5211C18.2264 22.7725 20.1889 23.453 22.2103 23.453C24.2317 23.453 26.1942 22.7725 27.7817 21.5211L42.4149 9.984C42.5342 9.89038 42.6763 9.83025 42.8266 9.80979C42.9769 9.78933 43.13 9.80929 43.27 9.8676C43.41 9.92592 43.532 10.0205 43.6233 10.1416C43.7147 10.2627 43.7721 10.4059 43.7897 10.5566C44.1394 13.6457 44.4206 16.8103 44.4206 20.0297C44.4206 24.4046 43.9063 28.6766 43.392 32.8046C43.1875 34.4044 42.4495 35.8885 41.2973 37.017C40.1451 38.1456 38.646 38.8527 37.0423 39.024L36.5829 39.072C31.9406 39.5554 27.1337 40.0594 22.2103 40.0594C17.2869 40.0594 12.48 39.5554 7.83771 39.072L7.37829 39.024ZM42.0274 3.87771C42.1472 4.04575 42.1963 4.25402 42.1642 4.45785C42.1322 4.66168 42.0215 4.84482 41.856 4.968L25.128 18.1543C24.2971 18.8106 23.2691 19.1676 22.2103 19.1676C21.1514 19.1676 20.1235 18.8106 19.2926 18.1543L2.56457 4.968C2.39904 4.84482 2.28838 4.66168 2.25633 4.45785C2.22428 4.25402 2.2734 4.04575 2.39314 3.87771C2.98306 3.08539 3.73043 2.42359 4.58832 1.93387C5.4462 1.44416 6.39607 1.13711 7.37829 1.032L7.83771 0.987428C12.48 0.500571 17.2869 0 22.2103 0C27.1337 0 31.9406 0.500571 36.5829 0.987428L37.0423 1.03543C38.0242 1.14012 38.9739 1.44664 39.8318 1.93576C40.6897 2.42487 41.4372 3.08602 42.0274 3.87771Z" fill="black"/>
</svg>
