<svg width="347" height="105" viewBox="0 0 347 105" fill="none" xmlns="http://www.w3.org/2000/svg">
<path d="M41.5408 40.7443C39.4482 40.7701 38.5513 39.7495 37.5846 37.8455C36.0455 34.9463 32.7243 33.3365 28.0382 33.3944C21.7901 33.4715 18.3771 36.3728 18.4251 40.2632C18.3902 44.5967 22.8055 46.4876 28.0665 47.6313L33.5054 48.8611C44.0266 51.0894 51.6668 56.3304 51.8202 66.3801C51.9272 77.4325 43.3493 84.5833 28.6132 84.7651C15.4096 84.9281 6.47086 79.5557 4.4537 68.969C4.01199 66.6163 5.40993 65.2432 7.7677 65.2141L13.2201 65.1468C15.3421 65.1206 16.2983 66.1699 17.1191 68.1937C18.7597 72.1528 22.9404 74.1351 28.3338 74.0685C34.8177 73.9885 38.9656 70.9307 38.9405 66.5095C38.8609 62.4427 35.183 60.6016 28.5911 59.0912L21.9984 57.5219C11.7709 55.2015 5.43038 50.1803 5.35001 41.2793C5.15576 30.3164 14.7619 22.8877 27.9949 22.7244C39.8133 22.5785 48.1659 28.2234 50.1892 36.9235C50.7488 39.2747 49.3214 40.6483 46.9342 40.6777L41.5408 40.7443ZM59.9156 26.693C59.8872 24.3941 61.1097 23.141 63.4086 23.1127L69.0967 23.0425C71.3955 23.0141 72.6486 24.2367 72.677 26.5355L72.9407 47.9028L98.8468 47.5831L98.5831 26.2158C98.5547 23.917 99.7773 22.6639 102.076 22.6355L107.735 22.5657C110.034 22.5373 111.287 23.7598 111.315 26.0587L111.973 79.3444C112.001 81.6432 110.778 82.8963 108.48 82.9247L102.821 82.9945C100.522 83.0229 99.269 81.8003 99.2407 79.5015L98.9766 58.1047L73.0706 58.4244L73.3346 79.8212C73.363 82.12 72.1404 83.3731 69.8416 83.4015L64.1535 83.4717C61.8546 83.5001 60.6015 82.2775 60.5731 79.9787L59.9156 26.693ZM217.879 24.7436C217.851 22.4448 219.073 21.1916 221.372 21.1633L241.649 20.913C255.354 20.7439 263.386 29.1046 263.534 41.0998C263.683 53.1539 255.71 61.5352 241.828 61.7066L231.1 61.8389L231.298 77.8718C231.327 80.1706 230.104 81.4238 227.805 81.4521L222.117 81.5223C219.818 81.5507 218.565 80.3281 218.537 78.0293L217.879 24.7436ZM230.974 51.6121L239.639 51.5052C246.948 51.415 250.463 47.2448 250.389 41.262C250.315 35.2497 246.7 31.2855 239.332 31.3764L230.726 31.4826L230.974 51.6121ZM285.033 77.2087C285.062 79.5075 283.839 80.7606 281.54 80.789L275.852 80.8592C273.553 80.8876 272.3 79.665 272.272 77.3662L271.614 24.0804C271.586 21.7816 272.808 20.5285 275.107 20.5001L280.795 20.4299C283.094 20.4016 284.347 21.6241 284.376 23.923L285.033 77.2087ZM292.576 23.8218C292.548 21.5229 293.771 20.2698 296.069 20.2415L338.568 19.717C340.867 19.6886 342.12 20.9112 342.149 23.21L342.191 26.6582C342.22 28.9571 340.997 30.2102 338.698 30.2386L323.756 30.423L324.327 76.7238C324.355 79.0226 323.133 80.2757 320.834 80.3041L315.293 80.3725C312.995 80.4008 311.741 79.1783 311.713 76.8794L311.142 30.5786L296.199 30.763C293.9 30.7914 292.647 29.5688 292.619 27.27L292.576 23.8218Z" fill="url(#paint0_linear_161_213)"/>
<path fill-rule="evenodd" clip-rule="evenodd" d="M163.074 17.4769C157.859 17.4769 153.631 21.7047 153.631 26.9199V29.6179H172.517V26.9199C172.517 21.7047 168.289 17.4769 163.074 17.4769ZM180.611 29.6179V26.9199C180.611 17.2344 172.76 9.38281 163.074 9.38281C153.389 9.38281 145.537 17.2344 145.537 26.9199V29.6179H140.136C136.552 29.6179 133.359 31.9789 132.377 35.4686C130.07 43.6694 128 52.6681 128 63.8955C128 68.4735 129.537 72.4681 132.389 75.4964C135.219 78.502 139.183 80.3857 143.78 81.0899C148.726 81.8475 154.859 82.3828 163.074 82.3828C171.289 82.3828 177.422 81.8475 182.369 81.0899C186.965 80.3857 190.929 78.502 193.76 75.4964C196.611 72.4681 198.148 68.4735 198.148 63.8955C198.148 52.6681 196.078 43.6694 193.771 35.4686C192.789 31.9789 189.596 29.6179 186.012 29.6179H180.611Z" fill="#BFBFBF"/>
<defs>
<linearGradient id="paint0_linear_161_213" x1="150.866" y1="94.2128" x2="157.69" y2="19.3679" gradientUnits="userSpaceOnUse">
<stop offset="0.0954187" stop-color="#BFBFBF"/>
</linearGradient>
</defs>
</svg>
