<svg width="293" height="132" viewBox="0 0 293 132" fill="none" xmlns="http://www.w3.org/2000/svg">
<path d="M37.0682 30.2727C37.0682 27.6136 38.5 26.1818 41.1591 26.1818H47.5C50.1591 26.1818 51.5909 27.6136 51.5909 30.2727V52.4318H52.0341C53.9773 48.1705 58.1705 42.9545 66.9318 42.9545C78.4205 42.9545 88.1364 51.8864 88.1364 69.8864C88.1364 87.4091 78.8295 96.8523 66.8977 96.8523C58.4432 96.8523 54.0455 91.9773 52.0341 87.6136H51.3864V91.9091C51.3864 94.5682 49.9545 96 47.2955 96H41.1591C38.5 96 37.0682 94.5682 37.0682 91.9091V30.2727ZM51.2841 69.8182C51.2841 79.1591 55.3068 85.2955 62.2955 85.2955C69.4205 85.2955 73.3068 78.9545 73.3068 69.8182C73.3068 60.75 69.4886 54.5114 62.2955 54.5114C55.2386 54.5114 51.2841 60.4773 51.2841 69.8182ZM131.406 47.7273C131.406 45.0682 132.838 43.6364 135.497 43.6364H141.838C144.497 43.6364 145.929 45.0682 145.929 47.7273V91.9091C145.929 94.5682 144.497 96 141.838 96H136.077C133.418 96 131.986 94.5682 131.986 91.9091V86.4886H131.44C129.088 92.625 123.429 96.6818 115.554 96.6818C105.02 96.6818 97.8608 89.2159 97.8267 76.9773V47.7273C97.8267 45.0682 99.2585 43.6364 101.918 43.6364H108.259C110.918 43.6364 112.349 45.0682 112.349 47.7273V74.3864C112.384 80.5568 115.929 84.4091 121.418 84.4091C126.634 84.4091 131.44 80.7273 131.406 73.7045V47.7273ZM164.841 36.8864C160.545 36.8864 157 33.5795 157 29.5227C157 25.5 160.545 22.1932 164.841 22.1932C169.17 22.1932 172.716 25.5 172.716 29.5227C172.716 33.5795 169.17 36.8864 164.841 36.8864ZM157.545 91.9091V47.7273C157.545 45.0682 158.977 43.6364 161.636 43.6364H167.977C170.636 43.6364 172.068 45.0682 172.068 47.7273V91.9091C172.068 94.5682 170.636 96 167.977 96H161.636C158.977 96 157.545 94.5682 157.545 91.9091ZM198.224 91.9091C198.224 94.5682 196.793 96 194.134 96H187.793C185.134 96 183.702 94.5682 183.702 91.9091V30.2727C183.702 27.6136 185.134 26.1818 187.793 26.1818H194.134C196.793 26.1818 198.224 27.6136 198.224 30.2727V91.9091ZM229.153 96.8523C217.222 96.8523 207.915 87.4091 207.915 69.8864C207.915 51.8864 217.631 42.9545 229.119 42.9545C237.881 42.9545 242.074 48.1705 244.017 52.4318H244.46V30.2727C244.46 27.6136 245.892 26.1818 248.551 26.1818H254.858C257.517 26.1818 258.949 27.6136 258.949 30.2727V91.9091C258.949 94.5682 257.517 96 254.858 96H248.722C246.062 96 244.631 94.5682 244.631 91.9091V87.6136H244.017C242.006 91.9773 237.608 96.8523 229.153 96.8523ZM222.744 69.8182C222.744 78.9545 226.631 85.2955 233.756 85.2955C240.744 85.2955 244.767 79.1591 244.767 69.8182C244.767 60.4773 240.812 54.5114 233.756 54.5114C226.562 54.5114 222.744 60.75 222.744 69.8182Z" fill="url(#paint0_linear_137_31)"/>
<path d="M239.693 2.95117H273.113C282.502 2.95117 290.113 10.5623 290.113 19.9512V47.7685" stroke="#393939" stroke-width="5"/>
<path d="M52.0195 2.95117H20.0006C10.6117 2.95117 3.00056 10.5623 3.00056 19.9512V47.7685" stroke="#393939" stroke-width="5"/>
<path d="M52.0195 129H20.0006C10.6117 129 3.00056 121.389 3.00056 112V84.1827" stroke="#393939" stroke-width="5"/>
<path d="M239.693 129H273.113C282.502 129 290.113 121.389 290.113 112V84.1827" stroke="#393939" stroke-width="5"/>
<defs>
<linearGradient id="paint0_linear_137_31" x1="133" y1="109.5" x2="148" y2="24.5" gradientUnits="userSpaceOnUse">
<stop offset="0.0954187" stop-color="#F70080"/>
<stop offset="1" stop-color="#FFAA00"/>
</linearGradient>
</defs>
</svg>
