<svg width="379" height="157" viewBox="0 0 379 157" fill="none" xmlns="http://www.w3.org/2000/svg">
<path d="M119.459 59.561C122.564 62.9234 124.402 67.4831 124.19 72.4215L122.644 111.222C122.25 121.1 113.921 128.789 104.028 128.409C94.1499 128.015 86.46 119.686 86.8396 109.793L86.8928 108.458C83.5306 111.562 78.9875 113.357 74.048 113.175C64.17 112.78 56.4801 104.452 56.8597 94.5581L56.9224 92.986C53.4949 96.6076 48.5794 98.8032 43.1806 98.5878C33.3026 98.1936 25.6128 89.8648 25.9923 79.9714L27.5973 41.2033C27.9912 31.3254 36.3196 23.6358 46.213 24.0157C51.1669 24.2134 55.5514 26.3938 58.6558 29.7562C61.7603 33.1185 63.5988 37.6782 63.3871 42.6166L63.3244 44.1888C66.7673 40.5529 71.6828 38.3574 77.0661 38.587C82.02 38.7847 86.4045 40.9651 89.5089 44.3275C92.6134 47.6899 94.4519 52.2496 94.2402 57.188L94.187 58.5228C97.5492 55.4185 102.092 53.624 107.032 53.8063C111.986 54.004 116.37 56.1844 119.475 59.5468L119.459 59.561Z" fill="#7E7E7E"/>
<path d="M126.788 62.747C129.447 62.7142 130.896 64.1282 130.929 66.7871L131.438 108.034C131.626 123.306 120.162 133.641 102.811 133.855C85.392 134.07 73.7443 124.02 73.5559 108.748L73.0468 67.5014C73.014 64.8425 74.4281 63.3932 77.087 63.3604L83.666 63.2792C86.3249 63.2464 87.7743 64.6604 87.8071 67.3193L88.3005 107.305C88.399 115.282 94.0946 120.973 102.651 120.867C111.241 120.761 116.76 114.932 116.662 106.955L116.169 66.9693C116.136 64.3104 117.55 62.861 120.209 62.8282L126.788 62.747ZM184.721 82.1131C182.301 82.143 181.264 80.9625 180.146 78.7603C178.365 75.407 174.524 73.5451 169.104 73.612C161.877 73.7012 157.93 77.057 157.985 81.5567C157.945 86.5689 163.052 88.756 169.137 90.0788L175.427 91.5013C187.597 94.0786 196.433 100.14 196.611 111.764C196.735 124.548 186.813 132.818 169.769 133.029C154.497 133.217 144.159 127.003 141.826 114.759C141.315 112.037 142.932 110.449 145.659 110.416L151.965 110.338C154.419 110.307 155.525 111.521 156.475 113.862C158.372 118.441 163.208 120.734 169.446 120.657C176.945 120.564 181.743 117.028 181.714 111.914C181.622 107.21 177.368 105.081 169.744 103.334L162.118 101.519C150.289 98.8348 142.955 93.0271 142.862 82.732C142.638 70.052 153.748 61.4597 169.054 61.2708C182.723 61.1021 192.384 67.6311 194.724 77.6939C195.372 80.4134 193.721 82.0021 190.96 82.0362L184.721 82.1131ZM221.455 132.391C211.468 132.514 204.006 127.356 203.878 116.993C203.733 105.301 212.997 101.709 223.348 100.627C232.438 99.6279 236.012 99.1406 235.971 95.7659L235.968 95.5613C235.915 91.2662 233.055 88.8127 228.112 88.8737C224.533 88.9178 221.991 90.1425 220.412 92.0371C218.935 93.8964 217.789 94.9674 215.468 94.7915L210.111 94.4144C207.211 94.2115 205.653 92.3215 206.882 89.6812C210.137 82.6859 217.55 78.4009 228.049 78.2714C239.708 78.1275 250.34 83.2467 250.494 95.723L250.879 126.948C250.912 129.607 249.498 131.056 246.839 131.089L241.249 131.158C238.59 131.191 237.142 129.913 237.113 127.561L237.068 123.948L236.659 123.953C234.163 128.859 229.194 132.295 221.455 132.391ZM217.746 116.345C217.795 120.333 221.025 122.373 225.491 122.318C231.865 122.239 236.347 117.99 236.279 112.502L236.211 106.946C234.487 108.126 229.314 108.94 226.15 109.422C221.045 110.201 217.695 112.254 217.746 116.345ZM276.667 126.63C276.7 129.289 275.286 130.738 272.627 130.771L266.286 130.849C263.628 130.882 262.178 129.468 262.145 126.809L261.6 82.6304C261.567 79.9715 262.981 78.5221 265.64 78.4893L271.299 78.4195C273.958 78.3867 275.407 79.8007 275.44 82.4596L275.504 87.607L276.117 87.5994C278.394 81.4685 283.971 77.5812 291.744 77.4853C302.652 77.3507 309.903 84.7618 310.053 96.9654L310.414 126.213C310.447 128.872 309.033 130.321 306.374 130.354L300.034 130.433C297.375 130.465 295.926 129.051 295.893 126.392L295.564 99.7353C295.519 93.3263 291.961 89.5518 286.132 89.6237C280.268 89.696 276.295 93.6999 276.344 100.45L276.667 126.63ZM341.215 130.777C329.284 130.924 319.861 121.596 319.645 104.075C319.423 86.0762 329.028 77.0252 340.515 76.8834C349.276 76.7753 353.533 81.9391 355.529 86.1762L355.972 86.1707L355.699 64.0133C355.666 61.3544 357.08 59.905 359.739 59.8722L366.045 59.7944C368.704 59.7616 370.153 61.1756 370.186 63.8345L370.947 125.466C370.98 128.125 369.566 129.574 366.907 129.607L360.771 129.683C358.112 129.716 356.662 128.302 356.63 125.643L356.577 121.348L355.963 121.355C354.006 125.743 349.668 130.672 341.215 130.777ZM334.472 103.824C334.585 112.959 338.549 119.252 345.674 119.164C352.662 119.078 356.609 112.892 356.493 103.552C356.378 94.2118 352.35 88.2951 345.294 88.3822C338.101 88.4709 334.36 94.7562 334.472 103.824Z" fill="url(#paint0_radial_161_217)"/>
<defs>
<radialGradient id="paint0_radial_161_217" cx="0" cy="0" r="1" gradientUnits="userSpaceOnUse" gradientTransform="translate(377.643 96.4805) rotate(177.714) scale(263.209 202.257)">
<stop offset="0.0954187" stop-color="#004B55"/>
<stop offset="0.701667" stop-color="#00DAF7"/>
</radialGradient>
</defs>
</svg>
